<svg width="141" height="42" viewBox="0 0 141 42" fill="none" xmlns="http://www.w3.org/2000/svg">
<path d="M29 21C29 25.4183 25.4183 29 21 29C16.5817 29 13 25.4183 13 21C13 16.5817 16.5817 13 21 13C25.4183 13 29 16.5817 29 21Z" fill="#F4F4F4"/>
<path fill-rule="evenodd" clip-rule="evenodd" d="M8 0C3.58172 0 0 3.58172 0 8V34C0 38.4183 3.58172 42 8 42H34C38.4183 42 42 38.4183 42 34V8C42 3.58172 38.4183 0 34 0H8ZM36 21C36 29.2843 29.2843 36 21 36C12.7157 36 6 29.2843 6 21C6 12.7157 12.7157 6 21 6C29.2843 6 36 12.7157 36 21Z" fill="#F4F4F4"/>
<path d="M55.144 25.512C54.2587 25.512 53.4373 25.368 52.68 25.08C51.9333 24.792 51.2827 24.3867 50.728 23.864C50.184 23.3413 49.7573 22.728 49.448 22.024C49.1493 21.32 49 20.552 49 19.72C49 18.888 49.1493 18.12 49.448 17.416C49.7573 16.712 50.1893 16.0987 50.744 15.576C51.2987 15.0533 51.9493 14.648 52.696 14.36C53.4427 14.072 54.2533 13.928 55.128 13.928C56.0133 13.928 56.824 14.072 57.56 14.36C58.3067 14.648 58.952 15.0533 59.496 15.576C60.0507 16.0987 60.4827 16.712 60.792 17.416C61.1013 18.1093 61.256 18.8773 61.256 19.72C61.256 20.552 61.1013 21.3253 60.792 22.04C60.4827 22.744 60.0507 23.3573 59.496 23.88C58.952 24.392 58.3067 24.792 57.56 25.08C56.824 25.368 56.0187 25.512 55.144 25.512ZM55.128 23.304C55.6293 23.304 56.088 23.2187 56.504 23.048C56.9307 22.8773 57.304 22.632 57.624 22.312C57.944 21.992 58.1893 21.6133 58.36 21.176C58.5413 20.7387 58.632 20.2533 58.632 19.72C58.632 19.1867 58.5413 18.7013 58.36 18.264C58.1893 17.8267 57.944 17.448 57.624 17.128C57.3147 16.808 56.9467 16.5627 56.52 16.392C56.0933 16.2213 55.6293 16.136 55.128 16.136C54.6267 16.136 54.1627 16.2213 53.736 16.392C53.32 16.5627 52.952 16.808 52.632 17.128C52.312 17.448 52.0613 17.8267 51.88 18.264C51.7093 18.7013 51.624 19.1867 51.624 19.72C51.624 20.2427 51.7093 20.728 51.88 21.176C52.0613 21.6133 52.3067 21.992 52.616 22.312C52.936 22.632 53.3093 22.8773 53.736 23.048C54.1627 23.2187 54.6267 23.304 55.128 23.304Z" fill="#F4F4F4"/>
<path d="M68.116 25.448C67.3907 25.448 66.756 25.288 66.212 24.968C65.668 24.648 65.2413 24.1627 64.932 23.512C64.6333 22.8507 64.484 22.0187 64.484 21.016C64.484 20.0027 64.628 19.1707 64.916 18.52C65.204 17.8693 65.62 17.384 66.164 17.064C66.708 16.744 67.3587 16.584 68.116 16.584C68.9267 16.584 69.652 16.7707 70.292 17.144C70.9427 17.5067 71.4547 18.0187 71.828 18.68C72.212 19.3413 72.404 20.12 72.404 21.016C72.404 21.9227 72.212 22.7067 71.828 23.368C71.4547 24.0293 70.9427 24.5413 70.292 24.904C69.652 25.2667 68.9267 25.448 68.116 25.448ZM63.028 28.424V16.712H65.412V18.472L65.364 21.032L65.524 23.576V28.424H63.028ZM67.684 23.4C68.1 23.4 68.468 23.304 68.788 23.112C69.1187 22.92 69.38 22.648 69.572 22.296C69.7747 21.9333 69.876 21.5067 69.876 21.016C69.876 20.5147 69.7747 20.088 69.572 19.736C69.38 19.384 69.1187 19.112 68.788 18.92C68.468 18.728 68.1 18.632 67.684 18.632C67.268 18.632 66.8947 18.728 66.564 18.92C66.2333 19.112 65.972 19.384 65.78 19.736C65.588 20.088 65.492 20.5147 65.492 21.016C65.492 21.5067 65.588 21.9333 65.78 22.296C65.972 22.648 66.2333 22.92 66.564 23.112C66.8947 23.304 67.268 23.4 67.684 23.4Z" fill="#F4F4F4"/>
<path d="M78.3469 25.448C77.3655 25.448 76.5015 25.256 75.7549 24.872C75.0189 24.488 74.4482 23.9653 74.0429 23.304C73.6375 22.632 73.4349 21.8693 73.4349 21.016C73.4349 20.152 73.6322 19.3893 74.0269 18.728C74.4322 18.056 74.9815 17.5333 75.6749 17.16C76.3682 16.776 77.1522 16.584 78.0269 16.584C78.8695 16.584 79.6269 16.7653 80.2989 17.128C80.9815 17.48 81.5202 17.992 81.9149 18.664C82.3095 19.3253 82.5069 20.12 82.5069 21.048C82.5069 21.144 82.5015 21.256 82.4909 21.384C82.4802 21.5013 82.4695 21.6133 82.4589 21.72H75.4669V20.264H81.1469L80.1869 20.696C80.1869 20.248 80.0962 19.8587 79.9149 19.528C79.7335 19.1973 79.4829 18.9413 79.1629 18.76C78.8429 18.568 78.4695 18.472 78.0429 18.472C77.6162 18.472 77.2375 18.568 76.9069 18.76C76.5869 18.9413 76.3362 19.2027 76.1549 19.544C75.9735 19.8747 75.8829 20.2693 75.8829 20.728V21.112C75.8829 21.5813 75.9842 21.9973 76.1869 22.36C76.4002 22.712 76.6935 22.984 77.0669 23.176C77.4509 23.3573 77.8989 23.448 78.4109 23.448C78.8695 23.448 79.2695 23.3787 79.6109 23.24C79.9629 23.1013 80.2829 22.8933 80.5709 22.616L81.8989 24.056C81.5042 24.504 81.0082 24.8507 80.4109 25.096C79.8135 25.3307 79.1255 25.448 78.3469 25.448Z" fill="#F4F4F4"/>
<path d="M89.4006 16.584C90.0833 16.584 90.6913 16.7227 91.2246 17C91.7686 17.2667 92.1953 17.6827 92.5046 18.248C92.814 18.8027 92.9686 19.5173 92.9686 20.392V25.32H90.4726V20.776C90.4726 20.0827 90.318 19.5707 90.0086 19.24C89.71 18.9093 89.2833 18.744 88.7286 18.744C88.334 18.744 87.9766 18.8293 87.6566 19C87.3473 19.16 87.102 19.4107 86.9206 19.752C86.75 20.0933 86.6646 20.5307 86.6646 21.064V25.32H84.1686V16.712H86.5526V19.096L86.1046 18.376C86.414 17.8 86.8566 17.3573 87.4326 17.048C88.0086 16.7387 88.6646 16.584 89.4006 16.584Z" fill="#F4F4F4"/>
<path d="M95.4071 25.32V14.12H100.879C102.287 14.12 103.343 14.3867 104.047 14.92C104.762 15.4533 105.119 16.1573 105.119 17.032C105.119 17.6187 104.975 18.1307 104.687 18.568C104.399 18.9947 104.004 19.3253 103.503 19.56C103.002 19.7947 102.426 19.912 101.775 19.912L102.079 19.256C102.783 19.256 103.407 19.3733 103.951 19.608C104.495 19.832 104.916 20.168 105.215 20.616C105.524 21.064 105.679 21.6133 105.679 22.264C105.679 23.224 105.3 23.976 104.543 24.52C103.786 25.0533 102.671 25.32 101.199 25.32H95.4071ZM97.9831 23.368H101.007C101.679 23.368 102.186 23.2613 102.527 23.048C102.879 22.824 103.055 22.472 103.055 21.992C103.055 21.5227 102.879 21.176 102.527 20.952C102.186 20.7173 101.679 20.6 101.007 20.6H97.7911V18.712H100.559C101.188 18.712 101.668 18.6053 101.999 18.392C102.34 18.168 102.511 17.832 102.511 17.384C102.511 16.9467 102.34 16.6213 101.999 16.408C101.668 16.184 101.188 16.072 100.559 16.072H97.9831V23.368Z" fill="#F4F4F4"/>
<path d="M107.465 25.32V13.448H109.962V25.32H107.465Z" fill="#F4F4F4"/>
<path d="M116.374 25.448C115.457 25.448 114.641 25.256 113.926 24.872C113.222 24.488 112.662 23.9653 112.246 23.304C111.841 22.632 111.638 21.8693 111.638 21.016C111.638 20.152 111.841 19.3893 112.246 18.728C112.662 18.056 113.222 17.5333 113.926 17.16C114.641 16.776 115.457 16.584 116.374 16.584C117.281 16.584 118.091 16.776 118.806 17.16C119.521 17.5333 120.081 18.0507 120.486 18.712C120.891 19.3733 121.094 20.1413 121.094 21.016C121.094 21.8693 120.891 22.632 120.486 23.304C120.081 23.9653 119.521 24.488 118.806 24.872C118.091 25.256 117.281 25.448 116.374 25.448ZM116.374 23.4C116.79 23.4 117.163 23.304 117.494 23.112C117.825 22.92 118.086 22.648 118.278 22.296C118.47 21.9333 118.566 21.5067 118.566 21.016C118.566 20.5147 118.47 20.088 118.278 19.736C118.086 19.384 117.825 19.112 117.494 18.92C117.163 18.728 116.79 18.632 116.374 18.632C115.958 18.632 115.585 18.728 115.254 18.92C114.923 19.112 114.657 19.384 114.454 19.736C114.262 20.088 114.166 20.5147 114.166 21.016C114.166 21.5067 114.262 21.9333 114.454 22.296C114.657 22.648 114.923 22.92 115.254 23.112C115.585 23.304 115.958 23.4 116.374 23.4Z" fill="#F4F4F4"/>
<path d="M126.81 28.552C126 28.552 125.216 28.4507 124.458 28.248C123.712 28.056 123.088 27.7627 122.586 27.368L123.578 25.576C123.941 25.8747 124.4 26.1093 124.954 26.28C125.52 26.4613 126.074 26.552 126.618 26.552C127.504 26.552 128.144 26.3547 128.538 25.96C128.944 25.5653 129.146 24.9787 129.146 24.2V22.904L129.306 20.744L129.274 18.568V16.712H131.642V23.88C131.642 25.48 131.226 26.6587 130.394 27.416C129.562 28.1733 128.368 28.552 126.81 28.552ZM126.426 24.904C125.626 24.904 124.901 24.7333 124.25 24.392C123.61 24.04 123.093 23.5547 122.698 22.936C122.314 22.3067 122.122 21.576 122.122 20.744C122.122 19.9013 122.314 19.1707 122.698 18.552C123.093 17.9227 123.61 17.4373 124.25 17.096C124.901 16.7547 125.626 16.584 126.426 16.584C127.152 16.584 127.792 16.7333 128.346 17.032C128.901 17.32 129.333 17.7733 129.642 18.392C129.952 19 130.106 19.784 130.106 20.744C130.106 21.6933 129.952 22.4773 129.642 23.096C129.333 23.704 128.901 24.1573 128.346 24.456C127.792 24.7547 127.152 24.904 126.426 24.904ZM126.922 22.856C127.36 22.856 127.749 22.7707 128.09 22.6C128.432 22.4187 128.698 22.168 128.89 21.848C129.082 21.528 129.178 21.16 129.178 20.744C129.178 20.3173 129.082 19.9493 128.89 19.64C128.698 19.32 128.432 19.0747 128.09 18.904C127.749 18.7227 127.36 18.632 126.922 18.632C126.485 18.632 126.096 18.7227 125.754 18.904C125.413 19.0747 125.141 19.32 124.938 19.64C124.746 19.9493 124.65 20.3173 124.65 20.744C124.65 21.16 124.746 21.528 124.938 21.848C125.141 22.168 125.413 22.4187 125.754 22.6C126.096 22.7707 126.485 22.856 126.922 22.856Z" fill="#F4F4F4"/>
<path d="M136.862 25.448C136.126 25.448 135.416 25.3627 134.733 25.192C134.061 25.0107 133.528 24.7867 133.133 24.52L133.965 22.728C134.36 22.9733 134.824 23.176 135.357 23.336C135.902 23.4853 136.435 23.56 136.957 23.56C137.533 23.56 137.939 23.4907 138.173 23.352C138.419 23.2133 138.542 23.0213 138.542 22.776C138.542 22.5733 138.446 22.424 138.254 22.328C138.072 22.2213 137.827 22.1413 137.518 22.088C137.208 22.0347 136.867 21.9813 136.493 21.928C136.131 21.8747 135.763 21.8053 135.389 21.72C135.016 21.624 134.675 21.4853 134.366 21.304C134.056 21.1227 133.805 20.8773 133.613 20.568C133.432 20.2587 133.341 19.8587 133.341 19.368C133.341 18.824 133.496 18.344 133.805 17.928C134.126 17.512 134.584 17.1867 135.182 16.952C135.779 16.7067 136.493 16.584 137.326 16.584C137.912 16.584 138.509 16.648 139.117 16.776C139.725 16.904 140.232 17.0907 140.637 17.336L139.806 19.112C139.39 18.8667 138.968 18.7013 138.542 18.616C138.126 18.52 137.72 18.472 137.326 18.472C136.771 18.472 136.365 18.5467 136.109 18.696C135.854 18.8453 135.725 19.0373 135.725 19.272C135.725 19.4853 135.816 19.6453 135.997 19.752C136.189 19.8587 136.44 19.944 136.749 20.008C137.059 20.072 137.395 20.1307 137.758 20.184C138.131 20.2267 138.504 20.296 138.878 20.392C139.251 20.488 139.587 20.6267 139.885 20.808C140.195 20.9787 140.445 21.2187 140.637 21.528C140.829 21.8267 140.926 22.2213 140.926 22.712C140.926 23.2453 140.766 23.72 140.445 24.136C140.125 24.5413 139.661 24.8613 139.053 25.096C138.456 25.3307 137.726 25.448 136.862 25.448Z" fill="#F4F4F4"/>
</svg>